# xmcd
#
# Track frame offsets: 
#        150
#        15842
#        33055
#        52559
#        67447
#        84374
#        101564
#        116778
#        133673
#        149849
#        162655
#        178198
#        191710
#        205535
#
# Disc length: 3028 seconds
#
# Revision: 0
# Processed by: cddbd v1.5.2PL0 Copyright (c) Steve Scherf et al.
# Submitted via: ExactAudioCopy v0.95a5
#
DISCID=c30bd20e
DTITLE=Kenny Rogers - Golden Legends
DYEAR=1900
DGENRE=Country
TTITLE0=Through The Years
TTITLE1=Lady
TTITLE2=She Believes In Me
TTITLE3=Crazy
TTITLE4=You Decorated My Life
TTITLE5=Endless Love
TTITLE6=Unforgettable
TTITLE7=When A Man Loves A Woman
TTITLE8=Wind Beneath My Wings
TTITLE9=As Time Goes By
TTITLE10=When I Fall In Love
TTITLE11=I Will Always Love You
TTITLE12=Love Me Tender
TTITLE13=Have I Told You Lately (That I Love You)
EXTD=
EXTT0=
EXTT1=
EXTT2=
EXTT3=
EXTT4=
EXTT5=
EXTT6=
EXTT7=
EXTT8=
EXTT9=
EXTT10=
EXTT11=
EXTT12=
EXTT13=
PLAYORDER=
